<svg version="1" xmlns="http://www.w3.org/2000/svg" width="666.667" height="666.667" viewBox="0 0 500.000000 500.000000"><path d="M162.9 113.2c-2.3 4-6.1 10.6-8.5 14.6-2.4 4-4.4 7.4-4.4 7.7 0 .2-2.7 5-6.1 10.7-3.4 5.7-7.1 12.1-8.4 14.3-1.2 2.2-10 17.5-19.5 34s-18 31.3-19 33c-.9 1.6-4.2 7.4-7.3 12.8l-5.7 9.8 8.5 14.5c4.7 8.1 8.5 14.8 8.5 14.9 0 .2 2.7 4.9 6 10.4 3.3 5.6 6 10.3 6 10.5 0 .3 2.3 4.1 5 8.6 2.8 4.5 5 8.3 5 8.6 0 .2 2.7 4.9 6 10.5 3.3 5.5 6 10.2 6 10.3 0 .2 3.7 6.6 8.1 14.2 4.5 7.6 9.3 15.9 10.7 18.4 1.3 2.5 3.3 5.9 4.3 7.5 1 1.7 2.4 4.2 3.1 5.5.8 1.4 2.4 4.2 3.7 6.3l2.3 3.7 83.1-.2 83-.3 7.2-12.5c7.9-13.7 28.4-49.4 52.7-91.5 8.6-14.9 16.5-28.7 17.7-30.8 1.2-2.1 2.8-4.9 3.7-6.2 1.5-2.3 1.4-2.7-1.9-8.2-1.9-3.2-4.6-7.8-5.9-10.3-1.4-2.5-5.7-9.9-9.5-16.5-8.1-13.8-33.4-57.8-36.5-63.3-2.7-4.8-11.6-20.3-12.8-22.2-1.4-2.3-7.1-12-9.3-16-1-1.9-2.8-5-3.9-6.8l-2-3.2H167.1l-4.2 7.2z"/></svg>