<?xml version="1.0" encoding="utf-8"?>
<!-- Generator: Adobe Illustrator 27.4.1, SVG Export Plug-In . SVG Version: 6.00 Build 0)  -->
<svg version="1.1" id="beryll" fill="#00d3c8" xmlns="http://www.w3.org/2000/svg" xmlns:xlink="http://www.w3.org/1999/xlink" x="0px" y="0px"
	 viewBox="0 0 30 30" style="enable-background:new 0 0 30 30;" xml:space="preserve">
<path id="beryll_00000099644431407731837300000016780916774587752880_" class="st0" d="M4.9,19.2l4.7,2.7v1.6l-4.7-2.7V19.2z
	 M9.6,6.5L8,7.4v4.7l1.6-0.9V6.5z M28.2,7.8v14.5L15,30L1.8,22.2V7.8L15,0L28.2,7.8z M11.1,21.3l-6.2-3.7V7.7L3.3,8.6v12.8l7.8,4.6
	V21.3z M11.1,4L6.4,6.8V17l4.7,2.7v-6.3l-1.6,0.9v2.9L8,16.3v-2.7l3.1-1.8V4z M15.8,3.8l3.1,1.8V4l-3.1-1.8l-1.6,0.9V2.2l-1.6,0.9
	v23.7l1.6,0.9V4.7L15.8,3.8z M20.4,11.2l-1.6-0.9v9.4l-1.6,0.9V6.2l-1.6-0.9v17.8l3.1-1.8v3.1l-1.6,0.9v-1.6l-1.6,0.9v3.1l4.7-2.7
	V11.2z M23.6,9.9l-4.7-2.7v1.6l3.1,1.8v13.6l1.6-0.9V9.9z M26.7,8.6L20.4,5v1.6l4.7,2.7v13l1.6-0.9V8.6z"/>
</svg>
