<?xml version="1.0" standalone="no"?>
<!DOCTYPE svg PUBLIC "-//W3C//DTD SVG 20010904//EN"
 "http://www.w3.org/TR/2001/REC-SVG-20010904/DTD/svg10.dtd">
<svg version="1.0" xmlns="http://www.w3.org/2000/svg"
 width="700.000000pt" height="700.000000pt" viewBox="0 0 700.000000 700.000000"
 preserveAspectRatio="xMidYMid meet">
<metadata>
Created by potrace 1.11, written by Peter Selinger 2001-2013
</metadata>
<g transform="translate(0.000000,700.000000) scale(0.100000,-0.100000)"
fill="#000000" stroke="none">
<path d="M3421 6955 c-40 -25 -74 -45 -75 -45 -2 0 -123 -70 -270 -155 -147
-85 -270 -155 -272 -155 -3 0 -17 -8 -32 -19 -15 -10 -193 -114 -397 -231
-203 -118 -453 -261 -555 -320 -102 -59 -259 -150 -350 -202 -91 -53 -295
-171 -455 -263 -159 -92 -308 -178 -330 -190 -22 -13 -78 -45 -125 -72 l-85
-49 0 -1753 0 -1754 240 -139 c132 -77 263 -152 290 -167 28 -16 104 -60 170
-98 66 -39 194 -113 285 -165 91 -52 210 -121 265 -153 139 -81 541 -313 592
-341 23 -13 93 -54 155 -91 62 -36 131 -76 153 -88 22 -12 213 -123 425 -245
212 -122 400 -231 417 -241 l33 -19 227 132 c126 72 282 162 347 199 66 38
122 69 125 69 2 0 12 6 20 14 9 7 41 27 71 43 30 17 154 88 275 158 121 70
264 153 318 184 54 31 110 63 125 72 15 9 47 27 72 41 41 24 890 514 970 561
19 11 53 30 76 43 22 12 58 33 80 46 21 14 46 27 54 31 8 4 71 40 140 80 l125
74 3 1757 c1 990 -2 1756 -7 1756 -4 0 -116 62 -247 138 -132 77 -259 150
-284 164 -25 14 -85 49 -135 78 -49 29 -106 61 -125 72 -19 11 -64 37 -100 58
-36 21 -81 47 -100 58 -19 10 -251 144 -515 297 -264 153 -552 319 -640 370
-88 51 -306 177 -485 280 -376 217 -390 225 -393 225 -1 0 -35 -21 -76 -45z"/>
</g>
</svg>
