<?xml version="1.0" standalone="no"?>
<!DOCTYPE svg PUBLIC "-//W3C//DTD SVG 20010904//EN"
 "http://www.w3.org/TR/2001/REC-SVG-20010904/DTD/svg10.dtd">
<svg version="1.0" xmlns="http://www.w3.org/2000/svg"
 width="700.000000pt" height="700.000000pt" viewBox="0 0 700.000000 700.000000"
 preserveAspectRatio="xMidYMid meet">
<metadata>
Created by potrace 1.14, written by Peter Selinger 2001-2017
</metadata>
<g transform="translate(0.000000,700.000000) scale(0.100000,-0.100000)"
fill="#000000" stroke="none">
<path d="M3425 6956 c-38 -23 -90 -54 -115 -68 -25 -14 -142 -83 -260 -153
-118 -71 -262 -156 -320 -190 -58 -34 -242 -143 -410 -242 -168 -100 -319
-189 -337 -199 -18 -11 -124 -73 -235 -139 -112 -66 -210 -124 -220 -130 -9
-5 -47 -28 -85 -49 -37 -22 -79 -47 -93 -57 -14 -9 -142 -85 -285 -169 -143
-84 -347 -204 -452 -267 l-193 -114 0 -1679 0 -1679 222 -132 c123 -72 309
-182 413 -244 105 -62 300 -177 435 -257 135 -80 346 -205 470 -278 124 -73
308 -182 410 -243 102 -60 203 -120 225 -132 22 -13 148 -87 280 -165 132 -79
260 -154 285 -168 25 -14 63 -37 85 -50 22 -14 89 -54 148 -89 l108 -63 122
71 c67 40 138 81 157 91 19 11 40 24 45 28 6 4 30 19 55 32 25 14 97 56 160
93 63 37 133 78 155 90 22 13 319 186 660 385 341 200 641 374 666 389 26 14
274 159 552 321 l507 295 0 1691 0 1690 -30 22 c-16 12 -31 22 -33 22 -4 0
-365 211 -427 249 -8 6 -60 36 -115 68 -55 33 -185 110 -290 172 -221 131
-452 268 -498 295 -132 75 -377 221 -399 237 -15 10 -29 19 -32 19 -3 0 -46
25 -96 55 -50 30 -93 55 -95 55 -2 0 -47 27 -100 60 -53 33 -98 60 -100 60 -2
0 -79 45 -170 100 -92 55 -168 100 -170 100 -1 0 -56 32 -121 71 -66 40 -132
79 -149 89 -16 9 -80 47 -142 84 -61 36 -113 66 -115 66 -2 0 -34 -20 -73 -44z
m410 -556 c87 -51 118 -69 188 -109 18 -10 89 -51 157 -91 69 -40 148 -85 175
-101 l50 -28 3 -185 c1 -102 0 -186 -4 -186 -3 0 -47 24 -97 54 -51 29 -108
63 -129 74 -20 11 -133 77 -251 146 -118 69 -222 129 -230 132 -9 3 -60 -20
-119 -54 -57 -33 -134 -76 -173 -97 -38 -21 -75 -42 -81 -46 -7 -6 -10 -781
-10 -2680 1 -1469 -1 -2675 -4 -2679 -3 -5 -41 12 -85 37 -169 96 -201 114
-242 135 l-43 22 0 2766 0 2766 182 102 c100 57 184 98 187 93 3 -5 5 -47 5
-93 -1 -45 0 -86 2 -90 5 -8 42 12 234 121 l135 78 30 -17 c17 -10 71 -41 120
-70z m-1245 -1247 l0 -908 -163 -93 c-89 -52 -169 -98 -177 -103 -96 -58 -343
-199 -349 -199 -31 0 -34 -34 -35 -336 -1 -168 1 -309 4 -314 4 -7 337 -210
344 -210 2 0 3 151 2 336 l0 336 185 104 184 104 3 -727 c1 -399 0 -728 -2
-730 -2 -3 -83 41 -179 96 -96 55 -189 108 -208 119 -19 10 -137 79 -264 152
-272 157 -312 180 -386 221 l-55 32 0 1190 1 1191 145 88 c80 48 152 91 161
95 12 6 295 175 359 214 118 72 417 248 423 249 4 0 7 -408 7 -907z m2203 663
c12 -8 41 -25 64 -38 22 -12 341 -194 707 -403 l666 -380 0 -1496 0 -1496 -27
-14 c-29 -14 -68 -36 -239 -132 -55 -31 -102 -57 -105 -57 -2 0 -4 682 -3
1515 l1 1515 -146 84 c-80 46 -160 92 -178 103 -18 10 -114 65 -215 123 -100
58 -212 122 -248 142 -36 20 -119 68 -185 106 l-120 70 -3 186 c-1 102 0 186
3 186 3 0 16 -6 28 -14z m-967 -157 c98 -55 181 -103 183 -105 2 -2 4 -756 4
-1674 0 -919 4 -1673 8 -1675 4 -3 76 34 161 83 84 48 165 93 179 100 l26 14
-1 1090 c-1 599 2 1092 6 1094 4 3 38 -13 75 -34 38 -22 88 -50 113 -64 163
-90 188 -107 152 -104 -16 1 -17 -86 -18 -1606 0 -884 -2 -1610 -5 -1612 -5
-5 -203 -119 -659 -380 -190 -109 -362 -209 -383 -223 -22 -13 -41 -22 -45
-19 -10 11 -8 698 3 713 6 8 89 58 185 112 l175 98 3 -184 c1 -100 4 -183 6
-183 1 0 68 37 147 81 79 45 161 90 182 101 24 13 37 27 38 42 4 81 3 706 -2
706 -3 0 -9 -4 -15 -9 -15 -15 -685 -401 -695 -401 -5 0 -9 849 -9 2070 0
1139 2 2070 4 2070 1 0 84 -45 182 -101z m959 -555 c171 -98 402 -230 515
-295 l205 -118 0 -1564 1 -1564 -171 -96 c-93 -53 -177 -99 -186 -102 -14 -5
-15 143 -15 1567 1 865 0 1578 -2 1585 -2 7 -25 25 -50 40 -26 15 -56 33 -67
40 -11 7 -27 15 -35 20 -8 4 -37 20 -65 36 -219 130 -442 259 -482 279 -23 11
-23 14 -23 200 l0 190 33 -20 c17 -11 172 -100 342 -198z m-3641 -1061 l-1
-1149 101 -61 c56 -33 337 -201 626 -373 289 -172 536 -320 550 -329 14 -8 34
-21 45 -27 67 -37 102 -57 113 -66 9 -8 12 -131 12 -554 0 -299 -2 -544 -5
-544 -7 0 25 -19 -1315 773 -74 43 -156 91 -181 106 -25 14 -107 62 -182 106
l-136 80 -1 1495 0 1495 117 65 c65 36 147 81 183 101 36 20 67 35 70 34 3 -2
5 -520 4 -1152z"/>
<path d="M2185 5452 c-27 -16 -77 -43 -110 -62 -33 -18 -85 -47 -115 -64 -31
-17 -64 -36 -75 -42 -18 -11 -19 -31 -19 -558 -1 -300 1 -546 3 -546 2 0 34
17 70 37 36 21 86 49 111 63 25 14 78 43 118 65 l72 40 0 548 c0 301 -1 547
-2 547 -2 0 -25 -13 -53 -28z"/>
<path d="M1144 2333 l1 -187 180 -104 c99 -57 203 -117 230 -132 28 -16 192
-110 365 -209 l315 -181 3 182 c1 100 -1 185 -5 189 -7 7 -336 198 -493 287
-25 14 -144 82 -265 152 -121 69 -245 141 -276 158 l-56 32 1 -187z"/>
</g>
</svg>
